<svg xmlns="http://www.w3.org/2000/svg" viewBox="0 0 190.62 319.54"><defs><style>.cls-1{fill:#fff;fill-rule:evenodd;}</style></defs><g id="Camada_2" data-name="Camada 2"><g id="Camada_1-2" data-name="Camada 1"><path class="cls-1" d="M190.48,92.59c0,10.17-.3,20.33.12,30.49.19,4.7-1.32,8.12-6.11,11-5.36,3.2-10.25,6.88-15.35,10.36C162.5,149,158.23,148.21,154,142c-1-1.4-1.24-2.35.22-3.44a12.85,12.85,0,0,1,2.29-1.56c16.92-7.45,20.29-19.18,18.65-33.6-1.43-12.47-.5-25.12-.18-37.69.1-3.91-1.51-6.25-5.5-8.49Q135,37.83,101,18c-4.19-2.46-6.84-2.45-11,0C67,31.4,43.84,44.6,20.63,57.76c-3.27,1.85-4.91,3.66-4.86,7.09.26,17.65.23,35.3,0,53,0,3.27,1.06,5.56,4.22,7.55,4.2,2.64,8.25,5.45,12.23,8.3,3.16,2.27,8.52,3.82,2.48,8.44-4.37,3.34-6.25,4.66-12.59,1.26C4.81,134.06-1.75,122.4.39,105.72,2.33,90.64.91,75.27.64,60,.57,56,1.7,53.13,6.13,50.6q42.45-24.29,84.51-49c3.39-2,5.64-2.22,9.35,0q42.39,25,85.28,49.52c4.13,2.36,5.38,4.86,5.3,8.63C190.35,70.66,190.49,81.63,190.48,92.59Z"/><path class="cls-1" d="M102.48,207.65q0,41.7,0,83.39c0,4,.42,7.44,4,11,4.68,4.69,3.69,10.21-2.11,14.34a15.52,15.52,0,0,1-18.27.38c-5.86-3.81-8-9.26-3.12-14.16,4.24-4.29,4.28-8.66,4.28-13.43,0-55.86.08-111.72-.14-167.58,0-5.3,1.16-7.53,8.6-7.32,6,.17,7,1.73,6.94,6C102.38,149.39,102.48,178.52,102.48,207.65Z"/><path class="cls-1" d="M35.85,95c12.39,10.7,24.15,20.88,35.95,31,2.91,2.5,1.84,5.56,1.84,8.41q.1,61,0,122c0,4,.27,7.54,3.87,11.1,4.91,4.85,3.33,10.18-2.42,14.27a15.24,15.24,0,0,1-18.25.23c-6.18-4.19-7.45-9.84-2.35-15,3.32-3.34,3.61-6.6,3.61-10.35-.05-39.06-.22-78.13.14-117.2,0-5.74-1.64-9.93-7.85-12.55C34.42,120.27,30.53,109.73,35.85,95Z"/><path class="cls-1" d="M154.24,94.73c.58,2.23.7,2.75.86,3.27,3.92,12.9-1.19,22.6-16,29-5.81,2.54-7.68,6.48-7.64,11.94.31,39.29.2,78.58.18,117.87,0,3.75.32,7,3.7,10.29,5.15,5.08,3.74,10.7-2.49,14.89-5.88,4-12.51,3.94-18.24-.2-6.07-4.38-6.84-10-1.81-15,3.07-3.07,3.56-6,3.55-9.53-.06-40.89,0-81.79-.17-122.68,0-4.88,1.45-8.53,5.78-12.08C132.65,113.76,142.81,104.63,154.24,94.73Z"/><path class="cls-1" d="M47.37,235c-3.25-3.32-3.74-6.54-3.72-10.31.07-20.33-.09-40.65.13-61,0-4.36-1.2-6.08-7.21-6a27.24,27.24,0,0,0-8.51,1.38c-.28,3.12-1.39,6.18-.84,9.33a20.44,20.44,0,0,1,.42,6.46l.38-.28c0,17.44,0,33.37,0,49.29,0,4-.27,7.5-3.76,11.11-5,5.12-3.52,10.76,2.83,14.89,5.57,3.63,11.8,3.82,17.42-.05C50.67,245.71,52.5,240.28,47.37,235Z"/><path class="cls-1" d="M161.55,220.55c-.05-14.44,0-28.88,0-45.68l.2.14c-.07-.24-.15-.49-.21-.74-1.17-4.62,1.75-9.45-1.06-13.83a3.58,3.58,0,0,1-.62-2.24,25,25,0,0,0-10.66.12c-5.65,1.08-2.54,5.92-2.59,9-.31,17.92-.13,35.84-.17,53.76,0,5.23.45,10.14-4.54,14.95-4.35,4.19-2.72,9.85,2.82,13.63,5.82,4,12.36,4.19,18.27.16,5.42-3.68,7.83-9.2,3.32-13.55C161.09,231.22,161.57,226,161.55,220.55Z"/></g></g></svg>